<svg width="360" height="360" viewBox="0 0 360 360" fill="none" xmlns="http://www.w3.org/2000/svg">
<path d="M360 275.328H0V275.508H360V275.328Z" fill="#EBEBEB"/>
<path d="M323.928 286.913H300.082V287.093H323.928V286.913Z" fill="#EBEBEB"/>
<path d="M238.478 288.871H232.222V289.051H238.478V288.871Z" fill="#EBEBEB"/>
<path d="M299.362 280.231H285.545V280.411H299.362V280.231Z" fill="#EBEBEB"/>
<path d="M68.8678 281.441H37.771V281.621H68.8678V281.441Z" fill="#EBEBEB"/>
<path d="M79.8408 281.441H75.2832V281.621H79.8408V281.441Z" fill="#EBEBEB"/>
<path d="M162.108 284.479H94.6582V284.659H162.108V284.479Z" fill="#EBEBEB"/>
<path d="M170.64 243.216H31.6152C30.5261 243.214 29.4823 242.78 28.7128 242.009C27.9434 241.239 27.5112 240.194 27.5112 239.105V43.6753C27.5207 42.5924 27.957 41.557 28.7255 40.794C29.4939 40.031 30.5323 39.602 31.6152 39.6001H170.64C171.73 39.6001 172.776 40.0332 173.547 40.8042C174.318 41.5752 174.751 42.6209 174.751 43.7113V239.105C174.751 240.195 174.318 241.241 173.547 242.012C172.776 242.783 171.73 243.216 170.64 243.216ZM31.6152 39.7441C30.5739 39.746 29.5758 40.161 28.8401 40.8981C28.1044 41.6351 27.6912 42.6339 27.6912 43.6753V239.105C27.6912 240.146 28.1044 241.145 28.8401 241.882C29.5758 242.619 30.5739 243.034 31.6152 243.036H170.64C171.682 243.034 172.681 242.619 173.418 241.883C174.155 241.146 174.569 240.147 174.571 239.105V43.6753C174.569 42.6333 174.155 41.6345 173.418 40.8976C172.681 40.1608 171.682 39.746 170.64 39.7441H31.6152Z" fill="#EBEBEB"/>
<path d="M326.383 243.216H187.351C186.262 243.214 185.217 242.78 184.446 242.01C183.676 241.239 183.242 240.195 183.24 239.105V43.6753C183.252 42.5918 183.69 41.5564 184.459 40.7936C185.229 40.0307 186.268 39.6019 187.351 39.6001H326.383C327.465 39.6038 328.502 40.0337 329.269 40.7965C330.035 41.5594 330.471 42.5937 330.48 43.6753V239.105C330.48 240.193 330.049 241.236 329.281 242.007C328.513 242.777 327.471 243.212 326.383 243.216ZM187.351 39.7441C186.309 39.746 185.311 40.1608 184.574 40.8976C183.837 41.6345 183.422 42.6333 183.42 43.6753V239.105C183.422 240.147 183.837 241.146 184.574 241.883C185.311 242.619 186.309 243.034 187.351 243.036H326.383C327.425 243.034 328.424 242.619 329.161 241.883C329.898 241.146 330.313 240.147 330.315 239.105V43.6753C330.313 42.6333 329.898 41.6345 329.161 40.8976C328.424 40.1608 327.425 39.746 326.383 39.7441H187.351Z" fill="#EBEBEB"/>
<path d="M278.51 91.0801L284.99 95.8249C245.743 149.566 196.43 181.692 138.355 191.304C97.3153 198.101 65.7721 190.685 60.8833 189.425V204.235C74.8998 207.202 89.195 208.65 103.522 208.555C115.744 208.553 127.947 207.568 140.011 205.61C167.863 201.096 194.606 191.34 218.823 176.861C247.961 159.494 274.104 135.101 296.583 104.35L302.962 109.037L303.07 83.2969L278.51 91.0801Z" fill="#E0E0E0"/>
<path d="M68.0399 210.017H61.5815V274.896H68.0399V210.017Z" fill="#EBEBEB"/>
<path d="M83.621 212.897H77.1626V274.896H83.621V212.897Z" fill="#EBEBEB"/>
<path d="M99.2089 214.337H92.7505V274.896H99.2089V214.337Z" fill="#EBEBEB"/>
<path d="M114.789 214.337H108.331V274.896H114.789V214.337Z" fill="#EBEBEB"/>
<path d="M130.378 213.617H123.919V274.896H130.378V213.617Z" fill="#EBEBEB"/>
<path d="M145.958 211.457H139.5V274.896H145.958V211.457Z" fill="#EBEBEB"/>
<path d="M161.539 207.857H155.081V274.896H161.539V207.857Z" fill="#EBEBEB"/>
<path d="M177.127 204.257H170.669V274.896H177.127V204.257Z" fill="#EBEBEB"/>
<path d="M192.708 201.377H186.25V274.896H192.708V201.377Z" fill="#EBEBEB"/>
<path d="M208.296 191.966H201.837V274.903H208.296V191.966Z" fill="#EBEBEB"/>
<path d="M223.877 184.054H217.418V274.903H223.877V184.054Z" fill="#EBEBEB"/>
<path d="M239.465 175.039H233.006V274.896H239.465V175.039Z" fill="#EBEBEB"/>
<path d="M255.046 163.03H248.587V274.896H255.046V163.03Z" fill="#EBEBEB"/>
<path d="M270.634 150.495H264.175V274.896H270.634V150.495Z" fill="#EBEBEB"/>
<path d="M286.215 133.783H279.756V274.896H286.215V133.783Z" fill="#EBEBEB"/>
<path d="M301.802 115.553H295.344V274.896H301.802V115.553Z" fill="#EBEBEB"/>
<path d="M180 307.843C257.1 307.843 319.601 304.194 319.601 299.693C319.601 295.192 257.1 291.542 180 291.542C102.901 291.542 40.3994 295.192 40.3994 299.693C40.3994 304.194 102.901 307.843 180 307.843Z" fill="#F5F5F5"/>
<path d="M286.2 194.681C272.369 229.034 252.691 260.732 228.038 288.367L183.441 260.683C208.096 233.046 227.777 201.346 241.61 166.99L286.2 194.681Z" fill="#00887A"/>
<path opacity="0.4" d="M286.207 194.674C272.368 229.029 252.685 260.728 228.031 288.367L208.757 276.401L183.441 260.691C208.096 233.053 227.777 201.353 241.61 166.997C256.471 176.232 271.337 185.458 286.207 194.674Z" fill="white"/>
<path opacity="0.2" d="M248.947 174.823C248.633 175.665 248.132 176.425 247.481 177.045C246.831 177.666 246.048 178.13 245.192 178.404C244.336 178.678 243.428 178.754 242.539 178.626C241.649 178.499 240.8 178.171 240.055 177.667C227.851 205.442 211.767 231.345 192.283 254.599C193.065 255.043 193.735 255.659 194.244 256.399C194.754 257.14 195.088 257.987 195.222 258.875C195.357 259.764 195.288 260.672 195.021 261.53C194.754 262.388 194.295 263.174 193.68 263.83L221.479 281.11C222.805 279.64 224.595 278.67 226.551 278.362C228.506 278.054 230.508 278.426 232.222 279.418C251.705 256.161 267.79 230.256 279.994 202.478C278.346 201.382 277.125 199.754 276.534 197.866C275.943 195.977 276.018 193.943 276.746 192.103V192.046L248.954 174.766L248.947 174.823ZM250.236 238.003C245.959 244.879 236.635 246.809 229.788 242.561C222.941 238.313 221.148 229.471 225.418 222.595C229.687 215.719 238.442 213.43 245.297 217.685C252.151 221.94 254.527 231.12 250.236 238.003Z" fill="black"/>
<g opacity="0.2">
<path d="M245.253 233.071L247.089 234.209C246.816 234.663 246.535 235.116 246.254 235.563L244.425 234.432C243.478 235.864 242.113 236.97 240.516 237.6L239.328 235.836C240.653 235.335 241.807 234.466 242.654 233.331L239.364 231.286C237.78 232.841 235.937 234.418 233.654 232.999C231.977 231.955 231.3 229.846 232.661 227.124L230.803 225.972C231.084 225.519 231.365 225.072 231.638 224.619L233.467 225.749C234.244 224.598 235.292 223.655 236.52 223.006L237.765 224.719C236.784 225.26 235.924 225.995 235.238 226.879L238.557 228.946C240.141 227.383 241.92 225.727 244.202 227.146C245.88 228.154 246.585 230.307 245.253 233.071ZM237.377 230.055L234.446 228.24C233.899 229.522 234.18 230.4 234.9 230.825C235.62 231.25 236.498 230.839 237.377 230.055ZM243.065 229.335C242.258 228.838 241.437 229.335 240.552 230.148L243.432 231.955C244.022 230.638 243.77 229.774 243.065 229.335Z" fill="black"/>
</g>
<path opacity="0.2" d="M286.207 194.674C272.368 229.029 252.685 260.728 228.031 288.367L208.757 276.401L193.457 250.56C193.457 250.56 254.477 225.274 286.207 194.674Z" fill="black"/>
<path d="M319.32 242.928C290.905 266.69 258.589 285.35 223.805 298.08C215.064 282.926 206.318 267.773 197.568 252.619C232.351 239.899 264.667 221.249 293.083 197.496C301.833 212.635 310.579 227.779 319.32 242.928Z" fill="#00887A"/>
<path opacity="0.4" d="M319.32 242.928C290.905 266.69 258.589 285.35 223.805 298.08C215.064 282.926 206.318 267.773 197.568 252.619C232.351 239.899 264.667 221.249 293.083 197.496C301.833 212.635 310.579 227.779 319.32 242.928Z" fill="white"/>
<path opacity="0.2" d="M295.855 207.836C295.18 208.429 294.38 208.862 293.514 209.102C292.647 209.341 291.738 209.381 290.854 209.218C289.971 209.055 289.135 208.694 288.411 208.161C287.687 207.629 287.094 206.939 286.675 206.144C262.789 224.869 236.366 240.107 208.195 251.403C208.673 252.163 208.973 253.021 209.072 253.914C209.171 254.807 209.066 255.71 208.765 256.556C208.464 257.402 207.975 258.169 207.335 258.799C206.696 259.43 205.921 259.906 205.07 260.194L221.422 288.526C223.286 287.858 225.324 287.852 227.193 288.507C229.062 289.162 230.649 290.44 231.689 292.126C259.859 280.83 286.283 265.592 310.169 246.867C309.227 245.12 308.915 243.102 309.286 241.152C309.658 239.202 310.689 237.439 312.206 236.16L312.257 236.117L295.92 207.8L295.855 207.836ZM267.156 264.14C260.136 268.179 251.014 265.479 246.996 258.495C242.978 251.511 245.556 242.878 252.576 238.839C259.596 234.8 268.416 236.909 272.412 243.879C276.408 250.848 274.183 260.108 267.156 264.14Z" fill="black"/>
<path d="M221.028 32H99.3485C97.7147 32.0104 96.0989 32.3428 94.5938 32.9783C93.0886 33.6137 91.7235 34.5398 90.5766 35.7034C89.4296 36.867 88.5235 38.2454 87.9098 39.7596C87.2962 41.2739 86.9872 42.8942 87.0005 44.528V295.088C86.9717 298.383 88.2523 301.555 90.5608 303.907C92.8694 306.259 96.0171 307.598 99.3125 307.63H221.028C224.326 307.6 227.476 306.262 229.787 303.91C232.099 301.558 233.382 298.385 233.355 295.088V44.528C233.38 41.2326 232.096 38.0622 229.784 35.7131C227.473 33.364 224.324 32.0285 221.028 32ZM225.658 287.362C225.658 293.958 220.719 299.293 214.628 299.293H105.735C99.6293 299.293 94.6901 293.958 94.6901 287.362V54.0392C94.6901 40.604 99.6293 39.9488 105.735 39.9488H127.544C128.811 39.9488 129.848 41.3888 129.848 43.1744V43.9448C129.848 48.128 132.137 48.1424 134.952 48.1424H185.396C188.232 48.1424 190.5 48.1424 190.5 43.9448V43.1744C190.5 41.3888 191.523 39.9488 192.812 39.9488H214.628C220.719 39.9488 225.658 41.7344 225.658 54.0392V287.362Z" fill="#263238"/>
<path d="M167.057 42.915H153.298C153.073 42.915 152.856 42.8255 152.697 42.6662C152.538 42.5068 152.448 42.2907 152.448 42.0654C152.448 41.8401 152.538 41.624 152.697 41.4647C152.856 41.3053 153.073 41.2158 153.298 41.2158H167.057C167.282 41.2158 167.498 41.3053 167.658 41.4647C167.817 41.624 167.907 41.8401 167.907 42.0654C167.907 42.2907 167.817 42.5068 167.658 42.6662C167.498 42.8255 167.282 42.915 167.057 42.915Z" fill="white"/>
<path d="M227 42.2314V296.502C227 296.966 226.908 297.426 226.729 297.854C226.55 298.283 226.288 298.671 225.958 298.997C225.627 299.322 225.236 299.579 224.806 299.751C224.376 299.923 223.916 300.008 223.453 300H97.1634C96.743 300.005 96.3257 299.926 95.9367 299.766C95.5477 299.606 95.1949 299.369 94.8996 299.069C94.6043 298.768 94.3726 298.411 94.2184 298.019C94.0642 297.627 93.9907 297.207 94.0023 296.785V41.9392C93.9874 41.5679 94.0456 41.1972 94.1736 40.8484C94.3016 40.4996 94.4969 40.1795 94.7484 39.9065C94.9998 39.6336 95.3024 39.413 95.6389 39.2574C95.9754 39.1019 96.3391 39.0144 96.7094 39H128.286C128.728 39.0081 129.157 39.1482 129.518 39.4024C129.88 39.6565 130.158 40.0132 130.316 40.4267L131.627 43.6581C131.788 44.0684 132.067 44.4214 132.429 44.6723C132.79 44.9232 133.218 45.0608 133.657 45.0676H187.413C187.851 45.0645 188.279 44.9304 188.64 44.6823C189.002 44.4343 189.282 44.0837 189.444 43.6753L190.754 40.4352C190.911 40.0201 191.189 39.6617 191.55 39.4059C191.912 39.1502 192.342 39.0088 192.785 39H223.873C224.714 39.0158 225.514 39.3644 226.1 39.9696C226.686 40.5749 227.009 41.3879 227 42.2314Z" fill="#A0CCC9"/>
<path opacity="0.76" d="M227 71H94V287H227V71Z" fill="white"/>
<path opacity="0.6" d="M109.261 46.0293H110.898V43.8467H109.261V46.0293Z" fill="white"/>
<path opacity="0.6" d="M106.601 46.0293H108.238V43.1221H106.601V46.0293Z" fill="white"/>
<path opacity="0.6" d="M103.932 46.021H105.569V42.3891H103.932V46.021Z" fill="white"/>
<path opacity="0.6" d="M101.272 46.0293H102.909V41.6642H101.272V46.0293Z" fill="white"/>
<path opacity="0.6" d="M212.072 43.0542H211.1V45.2368H212.072V43.0542Z" fill="white"/>
<path opacity="0.6" d="M212.728 46.021H220.452V42.2527H212.728V46.021Z" fill="white"/>
<path d="M226.77 49.5337H94.1704V71.0183H226.77V49.5337Z" fill="#263238"/>
<g opacity="0.7">
<path d="M103.165 64.2656C102.941 64.2647 102.727 64.1759 102.568 64.0184L99.3625 60.8213C99.2826 60.742 99.2192 60.6477 99.1759 60.5438C99.1326 60.4399 99.1104 60.3285 99.1104 60.2159C99.1104 60.1034 99.1326 59.992 99.1759 59.8881C99.2192 59.7842 99.2826 59.6899 99.3625 59.6106L102.568 56.4135C102.731 56.2738 102.941 56.2008 103.156 56.2091C103.37 56.2174 103.574 56.3064 103.726 56.4582C103.877 56.61 103.966 56.8136 103.975 57.0282C103.983 57.2427 103.91 57.4525 103.77 57.6156L101.17 60.2159L103.77 62.7736C103.929 62.9334 104.018 63.1495 104.018 63.3747C104.018 63.5999 103.929 63.816 103.77 63.9757C103.694 64.0625 103.601 64.1329 103.497 64.1828C103.393 64.2326 103.28 64.2608 103.165 64.2656Z" fill="white"/>
</g>
<g opacity="0.7">
<path d="M221.833 57.1042C221.833 57.2965 221.776 57.4844 221.67 57.6442C221.563 57.804 221.411 57.9286 221.234 58.0022C221.056 58.0757 220.86 58.095 220.672 58.0575C220.483 58.02 220.31 57.9274 220.174 57.7915C220.038 57.6556 219.946 57.4824 219.908 57.2939C219.871 57.1053 219.89 56.9099 219.964 56.7323C220.037 56.5547 220.162 56.4029 220.322 56.2961C220.481 56.1893 220.669 56.1323 220.862 56.1323C221.119 56.1323 221.367 56.2347 221.549 56.417C221.731 56.5993 221.833 56.8465 221.833 57.1042Z" fill="white"/>
<path d="M221.833 60.2161C221.833 60.4083 221.776 60.5962 221.67 60.756C221.563 60.9159 221.411 61.0404 221.234 61.114C221.056 61.1876 220.86 61.2068 220.672 61.1693C220.483 61.1318 220.31 61.0392 220.174 60.9033C220.038 60.7674 219.946 60.5942 219.908 60.4057C219.871 60.2171 219.89 60.0217 219.964 59.8441C220.037 59.6665 220.162 59.5147 220.322 59.4079C220.481 59.3011 220.669 59.2441 220.862 59.2441C221.119 59.2441 221.367 59.3465 221.549 59.5288C221.731 59.7111 221.833 59.9583 221.833 60.2161Z" fill="white"/>
<path d="M221.833 63.3367C221.833 63.5289 221.776 63.7168 221.67 63.8766C221.563 64.0365 221.411 64.161 221.234 64.2346C221.056 64.3082 220.86 64.3274 220.672 64.2899C220.483 64.2524 220.31 64.1599 220.174 64.0239C220.038 63.888 219.946 63.7148 219.908 63.5263C219.871 63.3378 219.89 63.1423 219.964 62.9647C220.037 62.7871 220.162 62.6353 220.322 62.5285C220.481 62.4217 220.669 62.3647 220.862 62.3647C221.119 62.3647 221.367 62.4671 221.549 62.6494C221.731 62.8317 221.833 63.0789 221.833 63.3367Z" fill="white"/>
</g>
<path d="M153.262 82.9883V90.1498H151.975V84.1051H150.457V82.9883H153.262Z" fill="#00887A"/>
<path d="M160.5 88.0952C160.5 89.4252 159.349 90.2522 157.567 90.2522C155.785 90.2522 154.651 89.3996 154.651 88.0952C154.646 87.7286 154.753 87.3693 154.957 87.0647C155.161 86.7602 155.453 86.5249 155.793 86.39C155.525 86.2449 155.303 86.0273 155.152 85.762C155.001 85.4967 154.928 85.1944 154.941 84.8895C154.941 83.6618 156.015 82.8945 157.601 82.8945C159.187 82.8945 160.278 83.6618 160.278 84.8895C160.286 85.2009 160.205 85.508 160.043 85.7741C159.881 86.0403 159.646 86.2541 159.366 86.39C159.706 86.5252 159.996 86.7609 160.199 87.0655C160.402 87.3702 160.506 87.7294 160.5 88.0952ZM159.161 88.0952C159.161 87.3875 158.547 86.9527 157.567 86.9527C156.586 86.9527 155.99 87.3875 155.99 88.0952C155.99 88.8028 156.586 89.2461 157.567 89.2461C158.547 89.2461 159.153 88.7772 159.153 88.0525L159.161 88.0952ZM156.237 84.9407C156.237 85.5545 156.74 85.9467 157.584 85.9467C158.428 85.9467 158.956 85.5545 158.956 84.9407C158.956 84.3268 158.402 83.9347 157.584 83.9347C156.765 83.9347 156.237 84.3013 156.237 84.9407Z" fill="#00887A"/>
<path d="M161.412 89.3741C161.412 89.2054 161.462 89.0406 161.556 88.9004C161.649 88.7602 161.783 88.6509 161.938 88.5864C162.094 88.5219 162.266 88.505 162.431 88.5379C162.596 88.5708 162.748 88.652 162.868 88.7712C162.987 88.8904 163.068 89.0423 163.101 89.2077C163.134 89.3731 163.117 89.5445 163.052 89.7003C162.988 89.8561 162.879 89.9893 162.738 90.0829C162.598 90.1766 162.433 90.2266 162.265 90.2266C162.039 90.2266 161.822 90.1368 161.662 89.9769C161.502 89.817 161.412 89.6002 161.412 89.3741Z" fill="#00887A"/>
<path d="M166.272 82.9883V90.1498H164.942V84.1051H163.433V82.9883H166.272Z" fill="#00887A"/>
<path d="M172.879 89.0243V90.1497H167.602V89.2971L170.449 86.603C171.14 85.938 171.302 85.5202 171.302 85.1195C171.302 84.4631 170.85 84.0879 169.972 84.0879C169.649 84.066 169.326 84.1219 169.029 84.251C168.732 84.3801 168.471 84.5785 168.267 84.8297L167.337 84.1135C167.668 83.7184 168.085 83.4056 168.557 83.1999C169.029 82.9942 169.543 82.9013 170.057 82.9284C171.609 82.9284 172.615 83.7213 172.615 84.9831C172.605 85.4255 172.492 85.8596 172.287 86.2515C172.081 86.6434 171.788 86.9825 171.43 87.2424L169.511 89.0669L172.879 89.0243Z" fill="#00887A"/>
<path d="M179.461 88.0952C179.461 89.4252 178.302 90.2522 176.528 90.2522C174.755 90.2522 173.612 89.3996 173.612 88.0952C173.608 87.7286 173.714 87.3693 173.918 87.0647C174.122 86.7602 174.414 86.5249 174.755 86.39C174.486 86.2449 174.264 86.0273 174.114 85.762C173.963 85.4967 173.89 85.1944 173.902 84.8895C173.902 83.6618 174.977 82.8945 176.562 82.8945C178.148 82.8945 179.239 83.6618 179.239 84.8895C179.246 85.2005 179.163 85.5067 179.002 85.7725C178.84 86.0382 178.606 86.2524 178.327 86.39C178.667 86.5252 178.958 86.7609 179.16 87.0655C179.363 87.3702 179.468 87.7294 179.461 88.0952ZM178.123 88.0952C178.123 87.3875 177.509 86.9527 176.528 86.9527C175.548 86.9527 174.951 87.3875 174.951 88.0952C174.951 88.8028 175.539 89.2461 176.528 89.2461C177.517 89.2461 178.123 88.7772 178.123 88.0525V88.0952ZM175.173 84.9833C175.173 85.5972 175.684 85.9893 176.528 85.9893C177.372 85.9893 177.892 85.5972 177.892 84.9833C177.892 84.3695 177.347 83.9773 176.528 83.9773C175.71 83.9773 175.173 84.3013 175.173 84.9407V84.9833Z" fill="#00887A"/>
<path d="M151.881 132.659V133.289H151.412V132.659C150.912 132.645 150.428 132.481 150.022 132.19L150.278 131.618C150.608 131.864 151.001 132.012 151.412 132.045V130.911C150.781 130.757 150.107 130.553 150.107 129.768C150.107 129.189 150.525 128.686 151.412 128.6V127.961H151.881V128.592C152.287 128.606 152.683 128.723 153.032 128.933L152.801 129.504C152.517 129.343 152.205 129.238 151.881 129.197V130.348C152.511 130.502 153.193 130.698 153.193 131.491C153.193 132.062 152.767 132.565 151.881 132.659ZM151.412 130.229V129.214C151.011 129.282 150.84 129.487 150.84 129.734C150.84 129.982 151.122 130.135 151.412 130.229ZM152.469 131.542C152.469 131.26 152.222 131.132 151.881 131.03V132.036C152.29 131.977 152.469 131.78 152.469 131.542Z" fill="black"/>
<path d="M156.578 128.643V132.607H155.845V129.257H154.993V128.643H156.578Z" fill="black"/>
<path d="M158.735 128.643V132.607H158.002V129.257H157.149V128.643H158.735Z" fill="black"/>
<path d="M162.41 131.388C162.41 132.087 161.907 132.667 160.841 132.667C160.307 132.678 159.784 132.517 159.349 132.207L159.665 131.636C159.998 131.895 160.41 132.033 160.833 132.028C161.361 132.028 161.685 131.789 161.685 131.422C161.685 131.056 161.446 130.8 160.619 130.8H159.648L159.852 128.643H162.205V129.257H160.5L160.415 130.178H160.79C161.941 130.178 162.41 130.689 162.41 131.388Z" fill="black"/>
<path d="M163.74 132.181C163.729 132.35 163.686 132.515 163.612 132.667L163.322 133.469H162.862L163.092 132.616C163.01 132.582 162.94 132.524 162.893 132.449C162.846 132.374 162.823 132.287 162.828 132.198C162.819 132.133 162.824 132.067 162.843 132.004C162.861 131.941 162.893 131.883 162.937 131.833C162.98 131.784 163.033 131.744 163.093 131.717C163.153 131.689 163.218 131.675 163.284 131.675C163.349 131.675 163.414 131.689 163.474 131.717C163.534 131.744 163.587 131.784 163.631 131.833C163.674 131.883 163.706 131.941 163.725 132.004C163.744 132.067 163.749 132.133 163.74 132.198V132.181Z" fill="black"/>
<path d="M167.15 131.985V132.607H164.226V132.13L165.803 130.638C165.938 130.54 166.049 130.412 166.127 130.264C166.206 130.116 166.249 129.953 166.255 129.785C166.255 129.427 166.008 129.214 165.522 129.214C165.343 129.204 165.165 129.236 165.002 129.309C164.839 129.382 164.695 129.492 164.584 129.632L164.072 129.231C164.256 129.012 164.487 128.839 164.749 128.725C165.011 128.611 165.296 128.56 165.581 128.575C166.434 128.575 166.997 129.01 166.997 129.717C166.992 129.963 166.93 130.204 166.816 130.421C166.702 130.639 166.539 130.827 166.34 130.971L165.283 131.977L167.15 131.985Z" fill="black"/>
<path d="M167.559 130.621C167.559 129.317 168.275 128.583 169.213 128.583C170.151 128.583 170.876 129.317 170.876 130.621C170.876 131.926 170.159 132.667 169.213 132.667C168.267 132.667 167.559 131.926 167.559 130.621ZM170.117 130.621C170.117 129.666 169.742 129.223 169.196 129.223C168.65 129.223 168.284 129.666 168.284 130.621C168.284 131.576 168.659 132.028 169.196 132.028C169.733 132.028 170.134 131.585 170.134 130.621H170.117Z" fill="black"/>
<path d="M129.594 123.366C128.093 129.474 128.437 135.89 130.582 141.802C132.727 147.715 136.578 152.859 141.646 156.583C146.715 160.307 152.774 162.445 159.058 162.725C165.341 163.006 171.567 161.417 176.947 158.159C182.327 154.901 186.621 150.121 189.284 144.423C191.948 138.725 192.862 132.365 191.911 126.148C190.96 119.93 188.186 114.135 183.941 109.493C179.696 104.852 174.17 101.574 168.062 100.074C164.007 99.0764 159.795 98.8878 155.667 99.5187C151.539 100.15 147.575 101.588 144.003 103.751C140.431 105.914 137.32 108.759 134.847 112.125C132.375 115.49 130.59 119.31 129.594 123.366ZM142.732 126.588C143.594 123.079 145.477 119.904 148.143 117.464C150.809 115.025 154.139 113.431 157.711 112.884C161.283 112.337 164.937 112.862 168.211 114.391C171.485 115.921 174.231 118.387 176.103 121.478C177.976 124.569 178.889 128.146 178.729 131.756C178.568 135.366 177.34 138.848 175.201 141.76C173.062 144.672 170.107 146.885 166.71 148.118C163.313 149.351 159.627 149.549 156.118 148.687C151.413 147.531 147.359 144.554 144.849 140.41C142.339 136.265 141.577 131.294 142.732 126.588Z" fill="#263238"/>
<path d="M133.363 147.587C136.277 152.337 140.389 156.237 145.286 158.898C150.183 161.559 155.693 162.886 161.264 162.746C166.835 162.607 172.272 161.005 177.03 158.103C181.787 155.201 185.698 151.099 188.371 146.209C191.045 141.319 192.386 135.812 192.26 130.241C192.135 124.669 190.548 119.229 187.658 114.464C184.768 109.699 180.676 105.777 175.793 103.091C170.91 100.405 165.407 99.0502 159.835 99.1611C160.876 99.1434 161.907 99.3667 162.847 99.8134C163.787 100.26 164.612 100.918 165.256 101.736C165.899 102.554 166.345 103.51 166.559 104.529C166.772 105.548 166.747 106.602 166.485 107.61C166.116 109.048 165.276 110.321 164.098 111.225C162.929 112.144 161.492 112.656 160.006 112.683H159.622C162.837 112.533 166.034 113.235 168.891 114.718C171.747 116.201 174.161 118.413 175.888 121.128C177.615 123.844 178.594 126.967 178.727 130.183C178.859 133.399 178.139 136.592 176.641 139.441C175.142 142.289 172.918 144.691 170.193 146.403C167.468 148.115 164.339 149.078 161.122 149.192C157.906 149.307 154.716 148.57 151.876 147.056C149.036 145.542 146.647 143.304 144.949 140.57C144.007 139.027 142.493 137.918 140.738 137.484C139.438 137.164 138.074 137.238 136.816 137.695C135.559 138.153 134.466 138.973 133.676 140.053C132.886 141.133 132.434 142.423 132.378 143.76C132.323 145.096 132.665 146.419 133.363 147.561V147.587Z" fill="#00887A"/>
<path d="M108.664 184.989H105.629V194.904H108.664V184.989Z" fill="#00887A"/>
<path d="M116.286 187.546H113.251V194.904H116.286V187.546Z" fill="#00887A"/>
<path d="M123.899 176.463H120.864V194.904H123.899V176.463Z" fill="#00887A"/>
<path d="M131.521 172.201H128.486V194.904H131.521V172.201Z" fill="#00887A"/>
<path d="M139.143 176.463H136.108V194.904H139.143V176.463Z" fill="#00887A"/>
<path d="M146.757 184.989H143.722V194.904H146.757V184.989Z" fill="#00887A"/>
<path d="M154.37 186.694H151.335V194.904H154.37V186.694Z" fill="#00887A"/>
<path d="M161.992 187.546H158.957V194.904H161.992V187.546Z" fill="#00887A"/>
<path d="M169.614 184.989H166.579V194.904H169.614V184.989Z" fill="#00887A"/>
<path d="M177.227 180.726H174.192V194.904H177.227V180.726Z" fill="#00887A"/>
<path d="M184.849 177.316H181.814V194.904H184.849V177.316Z" fill="#00887A"/>
<path d="M192.462 173.906H189.427V194.904H192.462V173.906Z" fill="#00887A"/>
<path d="M200.084 169.643H197.049V194.904H200.084V169.643Z" fill="#00887A"/>
<path d="M207.707 175.611H204.671V194.904H207.707V175.611Z" fill="#00887A"/>
<path d="M215.32 184.989H212.285V194.904H215.32V184.989Z" fill="#00887A"/>
<path d="M123.899 176.463H120.864V180.726H123.899V176.463Z" fill="#263238"/>
<path d="M131.521 172.201H128.486V180.726H131.521V172.201Z" fill="#263238"/>
<path d="M139.143 176.463H136.108V180.726H139.143V176.463Z" fill="#263238"/>
<path d="M184.849 177.316H181.814V180.726H184.849V177.316Z" fill="#263238"/>
<path d="M192.462 173.906H189.427V180.726H192.462V173.906Z" fill="#263238"/>
<path d="M200.084 169.643H197.049V180.726H200.084V169.643Z" fill="#263238"/>
<path d="M207.707 175.611H204.671V180.726H207.707V175.611Z" fill="#263238"/>
<path d="M215.277 207.156H105.68C104.277 207.156 103.14 208.293 103.14 209.696V222.766C103.14 224.169 104.277 225.307 105.68 225.307H215.277C216.681 225.307 217.818 224.169 217.818 222.766V209.696C217.818 208.293 216.681 207.156 215.277 207.156Z" fill="#00887A"/>
<g opacity="0.7">
<path d="M189.257 216.184H188.259V217.182H187.645V216.184H186.648V215.622H187.645V214.624H188.259V215.622H189.257V216.184Z" fill="white"/>
<path d="M193.238 217.932V218.571H192.778V217.941C192.278 217.93 191.793 217.766 191.388 217.472L191.644 216.9C191.975 217.145 192.368 217.293 192.778 217.327V216.193C192.147 216.039 191.473 215.835 191.473 215.05C191.473 214.471 191.891 213.968 192.778 213.882V213.234H193.238V213.865C193.645 213.887 194.04 214.007 194.389 214.215L194.159 214.786C193.877 214.62 193.563 214.515 193.238 214.479V215.63C193.869 215.775 194.551 215.98 194.551 216.764C194.551 217.386 194.133 217.847 193.238 217.932ZM192.778 215.502V214.496C192.369 214.556 192.198 214.76 192.198 215.016C192.198 215.272 192.445 215.408 192.778 215.502ZM193.827 216.815C193.827 216.542 193.579 216.406 193.238 216.312V217.318C193.656 217.25 193.827 217.062 193.827 216.815Z" fill="white"/>
<path d="M199.564 213.917V214.411L198.013 217.889H197.22L198.712 214.539H197.16V215.221H196.478V213.917H199.564Z" fill="white"/>
<path d="M202.796 216.67C202.796 217.369 202.293 217.949 201.227 217.949C200.693 217.96 200.17 217.799 199.735 217.489L200.05 216.918C200.387 217.17 200.797 217.305 201.218 217.301C201.747 217.301 202.071 217.071 202.071 216.696C202.071 216.321 201.832 216.082 201.005 216.082H200.05L200.255 213.917H202.582V214.539H200.877L200.792 215.46H201.167C202.327 215.46 202.796 215.963 202.796 216.67Z" fill="white"/>
<path d="M204.125 217.455C204.117 217.627 204.073 217.795 203.998 217.949L203.708 218.742H203.247L203.478 217.89C203.395 217.855 203.325 217.795 203.278 217.718C203.23 217.642 203.208 217.553 203.213 217.463C203.204 217.398 203.209 217.332 203.228 217.269C203.247 217.206 203.279 217.148 203.322 217.098C203.366 217.049 203.419 217.009 203.479 216.982C203.539 216.955 203.604 216.94 203.669 216.94C203.735 216.94 203.8 216.955 203.86 216.982C203.92 217.009 203.973 217.049 204.016 217.098C204.06 217.148 204.092 217.206 204.11 217.269C204.129 217.332 204.134 217.398 204.125 217.463V217.455Z" fill="white"/>
<path d="M204.535 215.903C204.535 214.598 205.251 213.865 206.189 213.865C207.126 213.865 207.894 214.598 207.894 215.903C207.894 217.207 207.186 217.949 206.189 217.949C205.191 217.949 204.535 217.207 204.535 215.903ZM207.092 215.903C207.092 214.948 206.717 214.505 206.172 214.505C205.626 214.505 205.259 214.948 205.259 215.903C205.259 216.858 205.634 217.301 206.172 217.301C206.709 217.301 207.109 216.866 207.109 215.903H207.092Z" fill="white"/>
<path d="M211.236 216.67C211.236 217.369 210.733 217.949 209.667 217.949C209.133 217.96 208.61 217.799 208.175 217.489L208.491 216.918C208.827 217.17 209.238 217.305 209.659 217.301C210.187 217.301 210.511 217.071 210.511 216.696C210.511 216.321 210.273 216.082 209.446 216.082H208.491L208.695 213.917H211.023V214.539H209.318L209.232 215.46H209.608C210.801 215.46 211.236 215.963 211.236 216.67Z" fill="white"/>
</g>
<path opacity="0.7" d="M138.129 214.829H111.426C111.157 214.829 110.899 214.722 110.709 214.532C110.519 214.341 110.412 214.083 110.412 213.814C110.411 213.68 110.436 213.547 110.486 213.423C110.537 213.299 110.611 213.186 110.706 213.091C110.8 212.996 110.912 212.921 111.036 212.869C111.16 212.818 111.292 212.791 111.426 212.791H138.129C138.398 212.793 138.656 212.902 138.846 213.094C139.036 213.285 139.143 213.544 139.143 213.814C139.141 214.082 139.033 214.339 138.843 214.529C138.654 214.719 138.397 214.826 138.129 214.829Z" fill="white"/>
<path opacity="0.7" d="M126.193 219.646H111.426C111.292 219.646 111.16 219.619 111.036 219.567C110.912 219.516 110.8 219.44 110.706 219.345C110.611 219.25 110.537 219.137 110.486 219.013C110.436 218.889 110.411 218.756 110.412 218.622C110.412 218.353 110.519 218.095 110.709 217.905C110.899 217.715 111.157 217.608 111.426 217.608H126.193C126.461 217.61 126.718 217.718 126.908 217.908C127.097 218.097 127.205 218.354 127.207 218.622C127.207 218.892 127.101 219.151 126.911 219.343C126.721 219.535 126.462 219.643 126.193 219.646Z" fill="white"/>
<path d="M215.277 231.88H105.68C104.277 231.88 103.14 233.017 103.14 234.421V247.49C103.14 248.893 104.277 250.031 105.68 250.031H215.277C216.681 250.031 217.818 248.893 217.818 247.49V234.421C217.818 233.017 216.681 231.88 215.277 231.88Z" fill="#00887A"/>
<g opacity="0.7">
<path d="M187.296 240.738H188.856V241.335H187.296V240.738Z" fill="white"/>
<path d="M192.786 242.657V243.296H192.317V242.665C191.818 242.651 191.334 242.488 190.928 242.196L191.183 241.625C191.516 241.867 191.908 242.014 192.317 242.051V240.917C191.695 240.764 191.013 240.559 191.013 239.775C191.013 239.195 191.439 238.692 192.317 238.607V237.959H192.786V238.59C193.193 238.611 193.588 238.731 193.937 238.939L193.75 239.553C193.467 239.388 193.154 239.284 192.829 239.246V240.397C193.46 240.542 194.142 240.747 194.142 241.531C194.099 242.111 193.673 242.571 192.786 242.657ZM192.317 240.227V239.221C191.917 239.28 191.746 239.485 191.746 239.741C191.746 239.997 191.993 240.133 192.317 240.227ZM193.375 241.54C193.375 241.267 193.127 241.131 192.786 241.037V242.043C193.196 241.975 193.375 241.787 193.375 241.54Z" fill="white"/>
<path d="M199.001 241.395C199.001 242.094 198.498 242.674 197.424 242.674C196.89 242.683 196.368 242.522 195.932 242.213L196.248 241.642C196.585 241.894 196.995 242.028 197.416 242.026C197.944 242.026 198.268 241.796 198.268 241.42C198.268 241.045 198.021 240.807 197.202 240.807H196.239L196.444 238.641H198.771V239.263H197.066L196.981 240.184H197.364C198.532 240.184 199.001 240.687 199.001 241.395Z" fill="white"/>
<path d="M202.275 241.395C202.275 242.094 201.764 242.674 200.698 242.674C200.164 242.683 199.642 242.522 199.206 242.213L199.521 241.642C199.859 241.894 200.269 242.028 200.69 242.026C201.218 242.026 201.542 241.796 201.542 241.42C201.542 241.045 201.295 240.807 200.468 240.807H199.513L199.718 238.641H202.045V239.263H200.34L200.255 240.184H200.638C201.815 240.184 202.275 240.687 202.275 241.395Z" fill="white"/>
<path d="M203.614 242.179C203.605 242.351 203.561 242.519 203.486 242.673L203.196 243.466H202.736L202.957 242.614C202.876 242.577 202.808 242.517 202.761 242.441C202.714 242.365 202.69 242.277 202.693 242.188C202.69 242.126 202.699 242.064 202.721 242.006C202.742 241.948 202.776 241.895 202.819 241.851C202.863 241.807 202.915 241.772 202.972 241.749C203.03 241.727 203.092 241.716 203.154 241.719C203.214 241.717 203.275 241.729 203.331 241.751C203.387 241.774 203.439 241.808 203.482 241.851C203.525 241.894 203.559 241.945 203.581 242.001C203.604 242.058 203.615 242.118 203.614 242.179Z" fill="white"/>
<path d="M207.604 241.71H206.896V242.614H206.18V241.71H203.98V241.199L205.933 238.641H206.726L204.884 241.088H206.18V240.287H206.871V241.088H207.578L207.604 241.71Z" fill="white"/>
<path d="M211.184 241.471C211.184 242.213 210.545 242.674 209.556 242.674C208.567 242.674 207.945 242.213 207.945 241.471C207.94 241.268 207.998 241.068 208.11 240.899C208.223 240.729 208.386 240.599 208.576 240.525C208.419 240.446 208.29 240.324 208.202 240.172C208.114 240.021 208.072 239.847 208.081 239.673C208.081 238.999 208.678 238.573 209.556 238.573C210.434 238.573 211.048 238.999 211.048 239.673C211.055 239.849 211.011 240.024 210.92 240.176C210.829 240.327 210.696 240.449 210.536 240.525C210.729 240.597 210.894 240.727 211.01 240.896C211.126 241.065 211.187 241.266 211.184 241.471ZM210.443 241.471C210.443 241.079 210.102 240.832 209.59 240.832C209.079 240.832 208.738 241.079 208.738 241.471C208.738 241.864 209.07 242.111 209.59 242.111C210.11 242.111 210.443 241.855 210.443 241.454V241.471ZM208.814 239.766C208.814 240.107 209.096 240.329 209.556 240.329C210.016 240.329 210.323 240.107 210.323 239.766C210.323 239.425 210.016 239.204 209.556 239.204C209.096 239.204 208.814 239.366 208.814 239.724V239.766Z" fill="white"/>
</g>
<path opacity="0.7" d="M138.129 239.553H111.426C111.157 239.553 110.899 239.446 110.709 239.256C110.519 239.066 110.412 238.808 110.412 238.539C110.411 238.405 110.436 238.272 110.486 238.148C110.537 238.024 110.611 237.911 110.706 237.816C110.8 237.721 110.912 237.645 111.036 237.594C111.16 237.542 111.292 237.516 111.426 237.516H138.129C138.398 237.518 138.656 237.627 138.846 237.818C139.036 238.01 139.143 238.269 139.143 238.539C139.141 238.807 139.033 239.064 138.843 239.254C138.654 239.443 138.397 239.551 138.129 239.553Z" fill="white"/>
<path opacity="0.7" d="M126.193 244.37H111.426C111.292 244.37 111.16 244.344 111.036 244.292C110.912 244.241 110.8 244.165 110.706 244.07C110.611 243.975 110.537 243.862 110.486 243.738C110.436 243.614 110.411 243.481 110.412 243.347C110.412 243.078 110.519 242.82 110.709 242.63C110.899 242.439 111.157 242.333 111.426 242.333H126.193C126.461 242.335 126.718 242.442 126.908 242.632C127.097 242.822 127.205 243.079 127.207 243.347C127.207 243.617 127.101 243.876 126.911 244.067C126.721 244.259 126.462 244.368 126.193 244.37Z" fill="white"/>
<path d="M215.277 256.604H105.68C104.277 256.604 103.14 257.742 103.14 259.145V272.215C103.14 273.618 104.277 274.756 105.68 274.756H215.277C216.681 274.756 217.818 273.618 217.818 272.215V259.145C217.818 257.742 216.681 256.604 215.277 256.604Z" fill="#00887A"/>
<g opacity="0.7">
<path d="M189.905 265.633H188.899V266.63H188.293V265.633H187.296V265.07H188.293V264.073H188.899V265.07H189.905V265.633Z" fill="white"/>
<path d="M193.886 267.381V268.02H193.417V267.389C192.917 267.376 192.433 267.212 192.027 266.92L192.283 266.349C192.616 266.591 193.007 266.738 193.417 266.775V265.642C192.795 265.488 192.113 265.283 192.113 264.499C192.113 263.919 192.539 263.416 193.417 263.331V262.683H193.886V263.314C194.292 263.335 194.687 263.455 195.037 263.664L194.807 264.235C194.524 264.07 194.211 263.965 193.886 263.928V265.079C194.517 265.224 195.199 265.428 195.199 266.213C195.199 266.835 194.773 267.295 193.886 267.381ZM193.417 264.951V263.945C193.016 264.005 192.846 264.209 192.846 264.465C192.846 264.721 193.093 264.857 193.417 264.951ZM194.474 266.264C194.474 265.991 194.227 265.855 193.886 265.761V266.767C194.304 266.699 194.474 266.511 194.474 266.264Z" fill="white"/>
<path d="M198.584 263.365V267.338H197.851V263.988H196.998V263.365H198.584Z" fill="white"/>
<path d="M202.591 266.196C202.591 266.937 201.951 267.398 200.962 267.398C199.973 267.398 199.351 266.937 199.351 266.196C199.346 265.992 199.404 265.792 199.517 265.623C199.63 265.453 199.792 265.323 199.982 265.249C199.826 265.17 199.696 265.048 199.608 264.896C199.52 264.745 199.478 264.571 199.487 264.397C199.487 263.723 200.084 263.297 200.962 263.297C201.84 263.297 202.454 263.723 202.454 264.397C202.461 264.572 202.418 264.746 202.328 264.897C202.239 265.048 202.108 265.171 201.951 265.249C202.142 265.323 202.305 265.453 202.42 265.622C202.534 265.791 202.594 265.991 202.591 266.196ZM201.849 266.196C201.849 265.803 201.508 265.556 200.996 265.556C200.485 265.556 200.144 265.803 200.144 266.196C200.144 266.588 200.476 266.835 200.996 266.835C201.516 266.835 201.849 266.579 201.849 266.179V266.196ZM200.22 264.49C200.22 264.831 200.502 265.053 200.962 265.053C201.423 265.053 201.73 264.831 201.73 264.49C201.73 264.149 201.423 263.928 200.962 263.928C200.502 263.928 200.22 264.09 200.22 264.448V264.49Z" fill="white"/>
<path d="M204.032 266.903C204.023 267.075 203.979 267.243 203.904 267.398L203.614 268.19H203.128L203.358 267.338C203.275 267.303 203.204 267.244 203.155 267.167C203.106 267.091 203.082 267.002 203.085 266.912C203.085 266.789 203.134 266.672 203.22 266.586C203.306 266.5 203.424 266.451 203.546 266.451C203.668 266.451 203.785 266.5 203.871 266.586C203.958 266.672 204.006 266.789 204.006 266.912L204.032 266.903Z" fill="white"/>
<path d="M207.442 266.716V267.338H204.518V266.835L206.095 265.335C206.479 264.968 206.547 264.738 206.547 264.482C206.547 264.115 206.291 263.911 205.805 263.911C205.629 263.901 205.453 263.934 205.292 264.005C205.13 264.076 204.988 264.184 204.876 264.32L204.364 263.928C204.546 263.707 204.778 263.533 205.04 263.419C205.302 263.305 205.588 263.254 205.873 263.271C206.726 263.271 207.289 263.706 207.289 264.405C207.284 264.651 207.222 264.892 207.108 265.109C206.994 265.327 206.831 265.515 206.632 265.658L205.566 266.673L207.442 266.716Z" fill="white"/>
<path d="M207.851 265.352C207.851 264.047 208.559 263.314 209.505 263.314C210.451 263.314 211.168 264.047 211.168 265.352C211.168 266.656 210.451 267.398 209.505 267.398C208.559 267.398 207.851 266.656 207.851 265.352ZM210.409 265.352C210.409 264.397 210.034 263.953 209.488 263.953C208.942 263.953 208.576 264.397 208.576 265.352C208.576 266.306 208.951 266.75 209.488 266.75C210.025 266.75 210.426 266.315 210.426 265.352H210.409Z" fill="white"/>
</g>
<path opacity="0.7" d="M138.129 264.277H111.426C111.157 264.277 110.899 264.17 110.709 263.98C110.519 263.79 110.412 263.532 110.412 263.263C110.411 263.129 110.436 262.996 110.486 262.872C110.537 262.748 110.611 262.635 110.706 262.54C110.8 262.445 110.912 262.369 111.036 262.318C111.16 262.266 111.292 262.24 111.426 262.24H138.129C138.398 262.242 138.656 262.351 138.846 262.542C139.036 262.734 139.143 262.993 139.143 263.263C139.141 263.531 139.033 263.788 138.843 263.978C138.654 264.168 138.397 264.275 138.129 264.277Z" fill="white"/>
<path opacity="0.7" d="M126.193 269.094H111.426C111.292 269.094 111.16 269.068 111.036 269.016C110.912 268.965 110.8 268.889 110.706 268.794C110.611 268.699 110.537 268.586 110.486 268.462C110.436 268.338 110.411 268.205 110.412 268.071C110.412 267.802 110.519 267.544 110.709 267.354C110.899 267.164 111.157 267.057 111.426 267.057H126.193C126.461 267.059 126.718 267.166 126.908 267.356C127.097 267.546 127.205 267.803 127.207 268.071C127.207 268.341 127.101 268.6 126.911 268.792C126.721 268.983 126.462 269.092 126.193 269.094Z" fill="white"/>
<path d="M133.781 64H133.224L135.341 58.1818H135.909L138.026 64H137.469L135.645 58.8722H135.605L133.781 64ZM134.182 61.7699H137.068V62.2472H134.182V61.7699ZM140.529 64.0909C140.171 64.0909 139.857 63.9962 139.588 63.8068C139.319 63.6174 139.109 63.3532 138.958 63.0142C138.808 62.6752 138.733 62.2803 138.733 61.8295C138.733 61.3807 138.808 60.9877 138.958 60.6506C139.109 60.3116 139.32 60.0483 139.591 59.8608C139.862 59.6714 140.177 59.5767 140.537 59.5767C140.802 59.5767 141.023 59.6241 141.199 59.7188C141.375 59.8116 141.516 59.9271 141.622 60.0653C141.728 60.2036 141.811 60.3381 141.87 60.4688H141.915V58.1818H142.424V64H141.929V63.1903H141.87C141.811 63.3229 141.728 63.4593 141.62 63.5994C141.512 63.7377 141.369 63.8542 141.191 63.9489C141.014 64.0436 140.794 64.0909 140.529 64.0909ZM140.588 63.6278C140.87 63.6278 141.111 63.5511 141.31 63.3977C141.509 63.2424 141.66 63.0294 141.764 62.7585C141.87 62.4858 141.924 62.1733 141.924 61.821C141.924 61.4725 141.871 61.1648 141.767 60.8977C141.663 60.6288 141.512 60.4186 141.313 60.267C141.114 60.1136 140.872 60.0369 140.588 60.0369C140.297 60.0369 140.05 60.1165 139.85 60.2756C139.651 60.4328 139.499 60.6458 139.395 60.9148C139.293 61.1837 139.242 61.4858 139.242 61.821C139.242 62.16 139.294 62.4659 139.398 62.7386C139.502 63.0114 139.654 63.2282 139.852 63.3892C140.053 63.5483 140.299 63.6278 140.588 63.6278ZM145.475 64.0909C145.117 64.0909 144.803 63.9962 144.535 63.8068C144.266 63.6174 144.055 63.3532 143.904 63.0142C143.754 62.6752 143.679 62.2803 143.679 61.8295C143.679 61.3807 143.754 60.9877 143.904 60.6506C144.055 60.3116 144.267 60.0483 144.537 59.8608C144.808 59.6714 145.124 59.5767 145.483 59.5767C145.749 59.5767 145.969 59.6241 146.145 59.7188C146.321 59.8116 146.463 59.9271 146.569 60.0653C146.675 60.2036 146.757 60.3381 146.816 60.4688H146.861V58.1818H147.37V64H146.875V63.1903H146.816C146.757 63.3229 146.674 63.4593 146.566 63.5994C146.458 63.7377 146.315 63.8542 146.137 63.9489C145.961 64.0436 145.74 64.0909 145.475 64.0909ZM145.535 63.6278C145.817 63.6278 146.057 63.5511 146.256 63.3977C146.455 63.2424 146.607 63.0294 146.711 62.7585C146.817 62.4858 146.87 62.1733 146.87 61.821C146.87 61.4725 146.818 61.1648 146.714 60.8977C146.609 60.6288 146.458 60.4186 146.259 60.267C146.06 60.1136 145.819 60.0369 145.535 60.0369C145.243 60.0369 144.997 60.1165 144.796 60.2756C144.597 60.4328 144.446 60.6458 144.341 60.9148C144.239 61.1837 144.188 61.4858 144.188 61.821C144.188 62.16 144.24 62.4659 144.344 62.7386C144.448 63.0114 144.6 63.2282 144.799 63.3892C145 63.5483 145.245 63.6278 145.535 63.6278ZM151.245 64V58.1818H154.62V58.6591H151.776V60.8494H154.441V61.3267H151.776V63.5227H154.677V64H151.245ZM156.243 59.6364L157.368 61.4972L158.493 59.6364H159.081L157.677 61.8182L159.081 64H158.493L157.368 62.1989L156.243 64H155.657L157.044 61.8182L155.657 59.6364H156.243ZM160.181 65.6364V59.6364H160.673V60.4688H160.732C160.793 60.3381 160.876 60.2045 160.982 60.0682C161.088 59.9299 161.228 59.8134 161.403 59.7188C161.579 59.6241 161.8 59.5767 162.067 59.5767C162.427 59.5767 162.742 59.6714 163.011 59.8608C163.281 60.0483 163.492 60.3116 163.641 60.6506C163.793 60.9877 163.869 61.3807 163.869 61.8295C163.869 62.2803 163.793 62.6752 163.641 63.0142C163.492 63.3532 163.281 63.6174 163.011 63.8068C162.742 63.9962 162.429 64.0909 162.073 64.0909C161.81 64.0909 161.589 64.0436 161.411 63.9489C161.235 63.8542 161.092 63.7377 160.982 63.5994C160.874 63.4593 160.791 63.3229 160.732 63.1903H160.687V65.6364H160.181ZM160.681 61.821C160.681 62.1733 160.733 62.4858 160.837 62.7585C160.943 63.0294 161.095 63.2424 161.292 63.3977C161.491 63.5511 161.731 63.6278 162.013 63.6278C162.303 63.6278 162.548 63.5483 162.746 63.3892C162.947 63.2282 163.1 63.0114 163.204 62.7386C163.31 62.4659 163.363 62.16 163.363 61.821C163.363 61.4858 163.311 61.1837 163.207 60.9148C163.104 60.6458 162.953 60.4328 162.752 60.2756C162.551 60.1165 162.305 60.0369 162.013 60.0369C161.729 60.0369 161.488 60.1136 161.289 60.267C161.09 60.4186 160.939 60.6288 160.834 60.8977C160.732 61.1648 160.681 61.4725 160.681 61.821ZM166.782 64.0909C166.375 64.0909 166.023 63.9962 165.725 63.8068C165.428 63.6155 165.198 63.3513 165.035 63.0142C164.874 62.6752 164.793 62.285 164.793 61.8438C164.793 61.4044 164.874 61.0142 165.035 60.6733C165.198 60.3305 165.422 60.0625 165.708 59.8693C165.996 59.6742 166.329 59.5767 166.705 59.5767C166.942 59.5767 167.17 59.6203 167.39 59.7074C167.61 59.7926 167.807 59.9242 167.981 60.1023C168.157 60.2784 168.296 60.5009 168.399 60.7699C168.501 61.0369 168.552 61.3532 168.552 61.7188V61.9688H165.143V61.5227H168.035C168.035 61.2424 167.978 60.9905 167.865 60.767C167.753 60.5417 167.597 60.3636 167.396 60.233C167.197 60.1023 166.967 60.0369 166.705 60.0369C166.429 60.0369 166.186 60.1108 165.975 60.2585C165.765 60.4062 165.6 60.6013 165.481 60.8438C165.364 61.0862 165.304 61.3513 165.302 61.6392V61.9062C165.302 62.2528 165.362 62.5559 165.481 62.8153C165.602 63.0729 165.774 63.2727 165.995 63.4148C166.217 63.5568 166.479 63.6278 166.782 63.6278C166.989 63.6278 167.169 63.5956 167.325 63.5312C167.482 63.4669 167.614 63.3807 167.72 63.2727C167.828 63.1629 167.909 63.0426 167.964 62.9119L168.444 63.0682C168.378 63.2519 168.269 63.4214 168.117 63.5767C167.968 63.732 167.78 63.857 167.555 63.9517C167.331 64.0445 167.074 64.0909 166.782 64.0909ZM170.212 61.2727V64H169.706V59.6364H170.198V60.321H170.243C170.346 60.0975 170.505 59.9186 170.721 59.7841C170.938 59.6477 171.207 59.5795 171.527 59.5795C171.821 59.5795 172.079 59.6411 172.3 59.7642C172.524 59.8854 172.697 60.0644 172.82 60.3011C172.945 60.5379 173.007 60.8286 173.007 61.1733V64H172.502V61.2045C172.502 60.8466 172.401 60.5634 172.201 60.3551C172.002 60.1468 171.735 60.0426 171.4 60.0426C171.17 60.0426 170.967 60.0919 170.789 60.1903C170.611 60.2888 170.47 60.4309 170.365 60.6165C170.263 60.8002 170.212 61.0189 170.212 61.2727ZM177.311 60.5938L176.848 60.7244C176.802 60.5937 176.738 60.4754 176.655 60.3693C176.571 60.2633 176.463 60.179 176.328 60.1165C176.195 60.054 176.031 60.0227 175.834 60.0227C175.538 60.0227 175.296 60.0928 175.106 60.233C174.917 60.3731 174.822 60.554 174.822 60.7756C174.822 60.9631 174.887 61.1155 175.016 61.233C175.146 61.3485 175.347 61.4403 175.618 61.5085L176.277 61.6705C176.642 61.7595 176.916 61.9006 177.098 62.0938C177.282 62.2869 177.373 62.5294 177.373 62.821C177.373 63.0672 177.305 63.286 177.169 63.4773C177.033 63.6686 176.842 63.8191 176.598 63.929C176.356 64.0369 176.074 64.0909 175.754 64.0909C175.328 64.0909 174.977 63.9953 174.7 63.804C174.424 63.6108 174.247 63.3324 174.169 62.9688L174.655 62.8494C174.717 63.1089 174.839 63.3049 175.021 63.4375C175.205 63.5701 175.446 63.6364 175.746 63.6364C176.081 63.6364 176.349 63.5616 176.55 63.4119C176.75 63.2604 176.851 63.071 176.851 62.8438C176.851 62.6676 176.792 62.5199 176.675 62.4006C176.557 62.2794 176.379 62.1903 176.141 62.1335L175.427 61.9631C175.049 61.8722 174.768 61.7282 174.587 61.5312C174.405 61.3343 174.314 61.09 174.314 60.7983C174.314 60.5578 174.379 60.3466 174.51 60.1648C174.641 59.9811 174.82 59.8371 175.05 59.733C175.279 59.6288 175.54 59.5767 175.834 59.5767C176.233 59.5767 176.552 59.6676 176.791 59.8494C177.032 60.0294 177.205 60.2775 177.311 60.5938ZM180.285 64.0909C179.878 64.0909 179.525 63.9962 179.228 63.8068C178.931 63.6155 178.701 63.3513 178.538 63.0142C178.377 62.6752 178.296 62.285 178.296 61.8438C178.296 61.4044 178.377 61.0142 178.538 60.6733C178.701 60.3305 178.925 60.0625 179.211 59.8693C179.499 59.6742 179.831 59.5767 180.208 59.5767C180.445 59.5767 180.673 59.6203 180.893 59.7074C181.113 59.7926 181.31 59.9242 181.484 60.1023C181.66 60.2784 181.799 60.5009 181.901 60.7699C182.004 61.0369 182.055 61.3532 182.055 61.7188V61.9688H178.646V61.5227H181.538C181.538 61.2424 181.481 60.9905 181.367 60.767C181.256 60.5417 181.099 60.3636 180.899 60.233C180.7 60.1023 180.47 60.0369 180.208 60.0369C179.932 60.0369 179.688 60.1108 179.478 60.2585C179.268 60.4062 179.103 60.6013 178.984 60.8438C178.866 61.0862 178.807 61.3513 178.805 61.6392V61.9062C178.805 62.2528 178.864 62.5559 178.984 62.8153C179.105 63.0729 179.276 63.2727 179.498 63.4148C179.72 63.5568 179.982 63.6278 180.285 63.6278C180.491 63.6278 180.672 63.5956 180.828 63.5312C180.985 63.4669 181.116 63.3807 181.222 63.2727C181.33 63.1629 181.412 63.0426 181.467 62.9119L181.947 63.0682C181.881 63.2519 181.772 63.4214 181.62 63.5767C181.471 63.732 181.283 63.857 181.058 63.9517C180.834 64.0445 180.577 64.0909 180.285 64.0909ZM186.141 60.5938L185.678 60.7244C185.632 60.5937 185.568 60.4754 185.485 60.3693C185.401 60.2633 185.293 60.179 185.158 60.1165C185.025 60.054 184.861 60.0227 184.664 60.0227C184.368 60.0227 184.126 60.0928 183.936 60.233C183.747 60.3731 183.652 60.554 183.652 60.7756C183.652 60.9631 183.717 61.1155 183.846 61.233C183.976 61.3485 184.177 61.4403 184.448 61.5085L185.107 61.6705C185.472 61.7595 185.746 61.9006 185.928 62.0938C186.112 62.2869 186.203 62.5294 186.203 62.821C186.203 63.0672 186.135 63.286 185.999 63.4773C185.863 63.6686 185.672 63.8191 185.428 63.929C185.186 64.0369 184.904 64.0909 184.584 64.0909C184.158 64.0909 183.807 63.9953 183.53 63.804C183.254 63.6108 183.077 63.3324 182.999 62.9688L183.485 62.8494C183.547 63.1089 183.669 63.3049 183.851 63.4375C184.035 63.5701 184.276 63.6364 184.576 63.6364C184.911 63.6364 185.179 63.5616 185.38 63.4119C185.58 63.2604 185.681 63.071 185.681 62.8438C185.681 62.6676 185.622 62.5199 185.505 62.4006C185.387 62.2794 185.209 62.1903 184.971 62.1335L184.257 61.9631C183.879 61.8722 183.598 61.7282 183.417 61.5312C183.235 61.3343 183.144 61.09 183.144 60.7983C183.144 60.5578 183.209 60.3466 183.34 60.1648C183.471 59.9811 183.65 59.8371 183.88 59.733C184.109 59.6288 184.37 59.5767 184.664 59.5767C185.063 59.5767 185.382 59.6676 185.621 59.8494C185.862 60.0294 186.035 60.2775 186.141 60.5938Z" fill="white"/>
<path d="M275.062 298.051H303.163V292.536H275.062V298.051Z" fill="#FFC100"/>
<path opacity="0.2" d="M275.062 298.051H281.254V292.536H275.062V298.051Z" fill="black"/>
<path opacity="0.2" d="M284.227 292.529H281.974V298.044H284.227V292.529Z" fill="black"/>
<path opacity="0.2" d="M287.115 292.529H285.574V298.044H287.115V292.529Z" fill="black"/>
<path opacity="0.2" d="M289.944 292.529H289.174V298.044H289.944V292.529Z" fill="black"/>
<path opacity="0.2" d="M294.602 292.529H294.214V298.044H294.602V292.529Z" fill="black"/>
<path d="M276.386 292.565H304.488V287.05H276.386V292.565Z" fill="#FFC100"/>
<path opacity="0.2" d="M276.387 292.565H282.579V287.05H276.387V292.565Z" fill="black"/>
<path opacity="0.2" d="M285.552 287.042H283.299V292.558H285.552V287.042Z" fill="black"/>
<path opacity="0.2" d="M288.439 287.042H286.898V292.558H288.439V287.042Z" fill="black"/>
<path opacity="0.2" d="M291.269 287.042H290.499V292.558H291.269V287.042Z" fill="black"/>
<path opacity="0.2" d="M295.927 287.042H295.539V292.558H295.927V287.042Z" fill="black"/>
<path d="M273.881 287.079H301.982V281.563H273.881V287.079Z" fill="#FFC100"/>
<path opacity="0.2" d="M273.881 287.079H280.073V281.563H273.881V287.079Z" fill="black"/>
<path opacity="0.2" d="M283.039 281.556H280.786V287.071H283.039V281.556Z" fill="black"/>
<path opacity="0.2" d="M285.927 281.556H284.386V287.071H285.927V281.556Z" fill="black"/>
<path opacity="0.2" d="M288.756 281.556H287.986V287.071H288.756V281.556Z" fill="black"/>
<path opacity="0.2" d="M293.414 281.556H293.026V287.071H293.414V281.556Z" fill="black"/>
<path d="M275.062 281.592H303.163V276.077H275.062V281.592Z" fill="#FFC100"/>
<path opacity="0.2" d="M275.062 281.592H281.254V276.077H275.062V281.592Z" fill="black"/>
<path opacity="0.2" d="M284.227 276.07H281.974V281.585H284.227V276.07Z" fill="black"/>
<path opacity="0.2" d="M287.115 276.07H285.574V281.585H287.115V276.07Z" fill="black"/>
<path opacity="0.2" d="M289.944 276.07H289.174V281.585H289.944V276.07Z" fill="black"/>
<path opacity="0.2" d="M294.602 276.07H294.214V281.585H294.602V276.07Z" fill="black"/>
<path d="M275.774 276.106H303.876V270.591H275.774V276.106Z" fill="#FFC100"/>
<path opacity="0.2" d="M275.775 276.106H281.967V270.591H275.775V276.106Z" fill="black"/>
<path opacity="0.2" d="M284.947 270.583H282.694V276.099H284.947V270.583Z" fill="black"/>
<path opacity="0.2" d="M287.834 270.583H286.294V276.099H287.834V270.583Z" fill="black"/>
<path opacity="0.2" d="M290.664 270.583H289.894V276.099H290.664V270.583Z" fill="black"/>
<path opacity="0.2" d="M295.322 270.583H294.934V276.099H295.322V270.583Z" fill="black"/>
<path d="M275.054 270.619H303.156V265.104H275.054V270.619Z" fill="#FFC100"/>
<path opacity="0.2" d="M275.055 270.619H281.247V265.104H275.055V270.619Z" fill="black"/>
<path opacity="0.2" d="M284.227 265.097H281.974V270.612H284.227V265.097Z" fill="black"/>
<path opacity="0.2" d="M287.115 265.097H285.574V270.612H287.115V265.097Z" fill="black"/>
<path opacity="0.2" d="M289.944 265.097H289.174V270.612H289.944V265.097Z" fill="black"/>
<path opacity="0.2" d="M294.602 265.097H294.214V270.612H294.602V265.097Z" fill="black"/>
<path d="M275.054 265.133H303.156V259.618H275.054V265.133Z" fill="#FFC100"/>
<path opacity="0.2" d="M275.055 265.133H281.247V259.618H275.055V265.133Z" fill="black"/>
<path opacity="0.2" d="M284.227 259.61H281.974V265.126H284.227V259.61Z" fill="black"/>
<path opacity="0.2" d="M287.115 259.61H285.574V265.126H287.115V259.61Z" fill="black"/>
<path opacity="0.2" d="M289.944 259.61H289.174V265.126H289.944V259.61Z" fill="black"/>
<path opacity="0.2" d="M294.602 259.61H294.214V265.126H294.602V259.61Z" fill="black"/>
<path d="M276.495 259.646H304.596V254.131H276.495V259.646Z" fill="#FFC100"/>
<path opacity="0.2" d="M276.495 259.646H282.687V254.131H276.495V259.646Z" fill="black"/>
<path opacity="0.2" d="M285.667 254.124H283.414V259.639H285.667V254.124Z" fill="black"/>
<path opacity="0.2" d="M288.554 254.124H287.014V259.639H288.554V254.124Z" fill="black"/>
<path opacity="0.2" d="M291.384 254.124H290.614V259.639H291.384V254.124Z" fill="black"/>
<path opacity="0.2" d="M296.043 254.124H295.654V259.639H296.043V254.124Z" fill="black"/>
<path d="M275.054 254.16H303.156V248.645H275.054V254.16Z" fill="#FFC100"/>
<path opacity="0.2" d="M275.055 254.16H281.247V248.645H275.055V254.16Z" fill="black"/>
<path opacity="0.2" d="M284.227 248.638H281.974V254.153H284.227V248.638Z" fill="black"/>
<path opacity="0.2" d="M287.115 248.638H285.574V254.153H287.115V248.638Z" fill="black"/>
<path opacity="0.2" d="M289.944 248.638H289.174V254.153H289.944V248.638Z" fill="black"/>
<path opacity="0.2" d="M294.602 248.638H294.214V254.153H294.602V248.638Z" fill="black"/>
<path d="M273.614 248.674H301.716V243.159H273.614V248.674Z" fill="#FFC100"/>
<path opacity="0.2" d="M273.614 248.674H279.806V243.159H273.614V248.674Z" fill="black"/>
<path opacity="0.2" d="M282.787 243.151H280.534V248.667H282.787V243.151Z" fill="black"/>
<path opacity="0.2" d="M285.675 243.151H284.134V248.667H285.675V243.151Z" fill="black"/>
<path opacity="0.2" d="M288.504 243.151H287.734V248.667H288.504V243.151Z" fill="black"/>
<path opacity="0.2" d="M293.162 243.151H292.774V248.667H293.162V243.151Z" fill="black"/>
<path d="M250.279 298.051H278.381V292.536H250.279V298.051Z" fill="#FFC100"/>
<path opacity="0.2" d="M250.279 298.051H256.471V292.536H250.279V298.051Z" fill="black"/>
<path opacity="0.2" d="M259.438 292.529H257.184V298.044H259.438V292.529Z" fill="black"/>
<path opacity="0.2" d="M262.325 292.529H260.784V298.044H262.325V292.529Z" fill="black"/>
<path opacity="0.2" d="M265.154 292.529H264.384V298.044H265.154V292.529Z" fill="black"/>
<path opacity="0.2" d="M269.813 292.529H269.424V298.044H269.813V292.529Z" fill="black"/>
<path d="M251.719 292.565H279.821V287.05H251.719V292.565Z" fill="#FFC100"/>
<path opacity="0.2" d="M251.719 292.565H257.911V287.05H251.719V292.565Z" fill="black"/>
<path opacity="0.2" d="M260.878 287.042H258.624V292.558H260.878V287.042Z" fill="black"/>
<path opacity="0.2" d="M263.765 287.042H262.224V292.558H263.765V287.042Z" fill="black"/>
<path opacity="0.2" d="M266.595 287.042H265.824V292.558H266.595V287.042Z" fill="black"/>
<path opacity="0.2" d="M271.253 287.042H270.864V292.558H271.253V287.042Z" fill="black"/>
<path d="M250.279 287.079H278.381V281.563H250.279V287.079Z" fill="#FFC100"/>
<path opacity="0.2" d="M250.279 287.079H256.471V281.563H250.279V287.079Z" fill="black"/>
<path opacity="0.2" d="M259.438 281.556H257.184V287.071H259.438V281.556Z" fill="black"/>
<path opacity="0.2" d="M262.325 281.556H260.784V287.071H262.325V281.556Z" fill="black"/>
<path opacity="0.2" d="M265.154 281.556H264.384V287.071H265.154V281.556Z" fill="black"/>
<path opacity="0.2" d="M269.813 281.556H269.424V287.071H269.813V281.556Z" fill="black"/>
<path d="M250.999 281.592H279.101V276.077H250.999V281.592Z" fill="#FFC100"/>
<path opacity="0.2" d="M250.999 281.592H257.191V276.077H250.999V281.592Z" fill="black"/>
<path opacity="0.2" d="M260.158 276.07H257.904V281.585H260.158V276.07Z" fill="black"/>
<path opacity="0.2" d="M263.045 276.07H261.504V281.585H263.045V276.07Z" fill="black"/>
<path opacity="0.2" d="M265.874 276.07H265.104V281.585H265.874V276.07Z" fill="black"/>
<path opacity="0.2" d="M270.533 276.07H270.144V281.585H270.533V276.07Z" fill="black"/>
<path d="M250.279 276.106H278.381V270.591H250.279V276.106Z" fill="#FFC100"/>
<path opacity="0.2" d="M250.279 276.106H256.471V270.591H250.279V276.106Z" fill="black"/>
<path opacity="0.2" d="M259.445 270.583H257.191V276.099H259.445V270.583Z" fill="black"/>
<path opacity="0.2" d="M262.332 270.583H260.791V276.099H262.332V270.583Z" fill="black"/>
<path opacity="0.2" d="M265.162 270.583H264.391V276.099H265.162V270.583Z" fill="black"/>
<path opacity="0.2" d="M269.82 270.583H269.431V276.099H269.82V270.583Z" fill="black"/>
<path d="M252.439 270.619H280.541V265.104H252.439V270.619Z" fill="#FFC100"/>
<path opacity="0.2" d="M252.439 270.619H258.631V265.104H252.439V270.619Z" fill="black"/>
<path opacity="0.2" d="M261.605 265.097H259.351V270.612H261.605V265.097Z" fill="black"/>
<path opacity="0.2" d="M264.492 265.097H262.951V270.612H264.492V265.097Z" fill="black"/>
<path opacity="0.2" d="M267.322 265.097H266.551V270.612H267.322V265.097Z" fill="black"/>
<path opacity="0.2" d="M271.98 265.097H271.591V270.612H271.98V265.097Z" fill="black"/>
<path d="M147.466 83.4805L147.152 84.5605H140.808L141.122 83.4805H147.466ZM144.622 91L141.006 86.7754L140.999 85.9277H142.667C143.15 85.9277 143.549 85.848 143.864 85.6885C144.183 85.5244 144.422 85.3034 144.581 85.0254C144.741 84.7474 144.821 84.4352 144.821 84.0889C144.821 83.7015 144.745 83.362 144.595 83.0703C144.445 82.7741 144.208 82.5439 143.884 82.3799C143.565 82.2113 143.146 82.127 142.626 82.127H140.822L141.143 81.0469H142.626C143.419 81.0469 144.073 81.1676 144.588 81.4092C145.108 81.6462 145.495 81.9925 145.75 82.4482C146.005 82.904 146.133 83.4554 146.133 84.1025C146.133 84.6585 146.026 85.1576 145.812 85.5996C145.602 86.0371 145.253 86.3812 144.766 86.6318C144.283 86.8825 143.631 87.0078 142.811 87.0078L146.174 90.918V91H144.622ZM147.466 81.0469L147.152 82.127H142.038L142.353 81.0469H147.466Z" fill="#00887A"/>
</svg>
